HIERARCHY
ROOT Hips
{
	OFFSET 173.408295 91.952423 -518.280273
	CHANNELS 6 Xposition Yposition Zposition Zrotation Yrotation Xrotation 
	JOINT LeftUpLeg
	{
		OFFSET 0.103459 1.857827 10.548504
		CHANNELS 3 Zrotation Yrotation Xrotation
		JOINT LeftLeg
		{
			OFFSET 43.500008 0.000000 0.000004
			CHANNELS 3 Zrotation Yrotation Xrotation
			JOINT LeftFoot
			{
				OFFSET 42.372192 0.000011 0.000000
				CHANNELS 3 Zrotation Yrotation Xrotation
				JOINT LeftToe
				{
					OFFSET 17.299973 -0.000013 -0.000010
					CHANNELS 3 Zrotation Yrotation Xrotation
					End Site
					{
						OFFSET 0.000000 0.000000 0.000000
					}
				}
			}
		}
	}
	JOINT RightUpLeg
	{
		OFFSET 0.103454 1.857830 -10.548500
		CHANNELS 3 Zrotation Yrotation Xrotation
		JOINT RightLeg
		{
			OFFSET 43.500038 -0.000038 0.000004
			CHANNELS 3 Zrotation Yrotation Xrotation
			JOINT RightFoot
			{
				OFFSET 42.372253 0.000019 0.000024
				CHANNELS 3 Zrotation Yrotation Xrotation
				JOINT RightToe
				{
					OFFSET 17.299988 -0.000007 0.000004
					CHANNELS 3 Zrotation Yrotation Xrotation
					End Site
					{
						OFFSET 0.000000 0.000000 0.000000
					}
				}
			}
		}
	}
	JOINT Spine
	{
		OFFSET 6.901963 -2.603744 0.000004
		CHANNELS 3 Zrotation Yrotation Xrotation
		JOINT Spine1
		{
			OFFSET 12.588104 0.000008 -0.000010
			CHANNELS 3 Zrotation Yrotation Xrotation
			JOINT Spine2
			{
				OFFSET 12.343202 -0.000005 0.000010
				CHANNELS 3 Zrotation Yrotation Xrotation
				JOINT Neck
				{
					OFFSET 25.832897 0.000000 0.000001
					CHANNELS 3 Zrotation Yrotation Xrotation
					JOINT Head
					{
						OFFSET 11.766611 -0.000006 -0.000000
						CHANNELS 3 Zrotation Yrotation Xrotation
						End Site
						{
							OFFSET 0.000000 0.000000 0.000000
						}
					}
				}
				JOINT LeftShoulder
				{
					OFFSET 19.745899 -1.480366 6.000108
					CHANNELS 3 Zrotation Yrotation Xrotation
					JOINT LeftArm
					{
						OFFSET 11.284111 -0.000018 -0.000015
						CHANNELS 3 Zrotation Yrotation Xrotation
						JOINT LeftForeArm
						{
							OFFSET 33.000050 -0.000005 0.000028
							CHANNELS 3 Zrotation Yrotation Xrotation
							JOINT LeftHand
							{
								OFFSET 25.200012 0.000000 0.000002
								CHANNELS 3 Zrotation Yrotation Xrotation
								End Site
								{
									OFFSET 0.000000 0.000000 0.000000
								}
							}
						}
					}
				}
				JOINT RightShoulder
				{
					OFFSET 19.746111 -1.480335 -6.000074
					CHANNELS 3 Zrotation Yrotation Xrotation
					JOINT RightArm
					{
						OFFSET 11.284151 0.000036 0.000001
						CHANNELS 3 Zrotation Yrotation Xrotation
						JOINT RightForeArm
						{
							OFFSET 33.000092 -0.000035 0.000022
							CHANNELS 3 Zrotation Yrotation Xrotation
							JOINT RightHand
							{
								OFFSET 25.199768 0.000178 0.000417
								CHANNELS 3 Zrotation Yrotation Xrotation
								End Site
								{
									OFFSET 0.000000 0.000000 0.000000
								}
							}
						}
					}
				}
			}
		}
	}
}
MOTION
Frames: 11
Frame Time: 0.033333
103.234161 -11.309702 487.300354 95.358376 4.623729 114.439552 -179.981628 -3.001753 162.969620 -62.947380 2.268795 -5.148521 48.366814 -9.126417 -14.380336 21.454300 0.003092 0.000001 141.832336 -8.223426 179.027817 -53.050911 6.814487 7.517668 78.483032 -7.493844 -44.384556 21.454998 -0.003110 -0.000017 8.746161 3.962979 -1.592799 12.831969 4.148179 0.793148 13.418831 4.299037 0.479125 -27.332159 -16.071753 -17.699518 -6.353047 48.904266 -3.942616 152.351410 -86.552917 19.042706 -16.911018 61.788334 130.425476 66.434753 -34.076321 -69.597107 -6.033879 -21.988998 41.113861 -169.278137 70.452225 6.572776 15.967409 -46.661556 -125.844231 50.840298 41.598476 48.678139 -1.507928 23.516363 -15.806394 
104.363541 -10.306005 491.049194 95.528702 3.766262 112.172707 171.159607 -4.695126 165.221344 -75.339188 3.285727 -4.655863 44.255840 -5.032323 -11.049191 21.454239 0.003092 0.000001 144.615677 -7.712794 178.972122 -54.271332 6.103286 6.320971 80.080933 -5.487647 -35.318909 21.455006 -0.003109 -0.000017 8.353536 3.539509 -1.108164 13.335485 3.894289 1.659276 13.134391 4.129532 1.279274 -28.096806 -17.104984 -16.943541 -8.501398 49.837349 -5.268289 145.860016 -87.955879 25.024284 -15.572190 61.772705 132.218018 60.612873 -31.153368 -65.628067 -6.867362 -21.194067 39.562664 -171.000381 70.875877 5.016852 13.921528 -46.126579 -124.974625 51.130688 42.774055 48.051277 -1.414705 23.257856 -13.883677 
104.958229 -9.255571 494.906036 96.274307 3.304621 109.442886 159.717087 -6.279949 166.841812 -90.502205 5.290536 -3.059855 42.450500 -1.831861 -9.051424 21.454187 0.003092 0.000001 148.106354 -7.111244 178.570068 -55.398544 5.480929 4.616944 81.846558 -2.546530 -22.704079 21.455042 -0.003109 -0.000017 9.279753 2.572029 -0.305878 14.086030 2.981030 2.708415 12.390162 3.368592 2.190186 -28.585409 -18.587679 -15.909485 -11.715294 50.693829 -7.425803 46.344707 -89.491005 123.910515 -14.598314 62.354298 134.078583 54.364666 -28.661634 -62.102009 -7.281066 -19.584433 38.176388 -173.948837 71.406494 1.952492 11.957606 -46.679195 -123.923683 50.986149 44.314877 46.667873 -1.205287 23.495424 -12.485166 
105.240341 -8.585814 498.912415 97.146584 2.652020 107.709801 148.431717 -7.385423 168.402847 -104.717705 8.223124 -1.032420 40.448807 -1.163832 -6.552196 21.454140 0.003091 0.000001 151.309937 -6.148184 178.858994 -56.280727 4.631094 2.772162 84.783417 0.545188 -8.288232 21.455107 -0.003108 -0.000018 11.534766 1.365183 0.447610 13.836424 1.846650 3.513214 10.798805 2.455060 2.900120 -28.771908 -20.515318 -14.551953 -15.323443 51.276810 -9.607705 -13.415009 -87.170555 -176.751907 -12.878975 63.528904 136.533554 48.339375 -27.049551 -59.398273 -6.977170 -17.913731 35.519985 -175.978714 71.949486 -0.423471 10.422423 -47.796616 -122.858284 49.353233 46.850697 44.517467 -1.142158 23.664146 -12.033750 
105.677628 -9.016493 503.136505 96.851395 1.394891 107.219368 138.573441 -7.761092 169.732727 -112.713669 12.293583 1.735723 38.102882 -3.687532 -1.733759 21.454119 0.003090 0.000001 153.179337 -5.734982 179.942261 -56.826508 3.608184 1.997535 89.114700 1.950100 5.461880 21.455166 -0.003108 -0.000018 12.169056 0.861960 0.769308 13.130498 1.021773 4.050650 9.885069 1.508529 3.393666 -29.378998 -22.655596 -12.811159 -17.842735 51.419090 -10.548512 -24.029181 -85.730553 -166.584366 -9.450442 64.161003 140.386566 43.028271 -26.533176 -56.636711 -6.042680 -16.892405 32.707268 -178.006699 72.061195 -2.898096 8.357038 -48.309128 -120.929680 47.231812 50.363102 42.896542 -0.707388 23.419754 -11.408932 
106.620804 -9.955292 507.500732 96.610107 0.374932 107.055099 130.992310 -7.317843 169.272385 -115.849411 15.185750 2.393842 41.946529 -0.888248 2.087908 21.454094 0.003089 0.000001 154.883881 -5.241982 -178.463455 -58.102188 2.179597 1.642218 95.402550 1.302196 17.328897 21.455231 -0.003108 -0.000018 12.584817 0.432504 1.052268 12.090193 0.393474 4.255577 9.102336 0.699252 3.607689 -30.190569 -24.190193 -10.827855 -19.356359 51.003609 -10.251303 -33.271042 -84.977409 -157.587570 -4.024390 64.515419 145.779663 37.979385 -26.595085 -52.790958 -5.586524 -16.478489 31.724348 -179.209244 72.061394 -4.592990 5.346488 -47.852352 -118.010735 45.351578 54.655109 42.273842 -0.986921 22.907244 -12.699429 
107.993736 -10.822820 512.038025 96.800217 -0.348149 106.704590 125.905487 -6.205959 167.421295 -112.230316 16.932995 2.960665 47.393818 2.572001 7.159867 21.454065 0.003088 0.000001 157.210724 -4.838765 -176.129669 -58.416386 0.637095 1.433288 101.644485 -0.869031 26.678791 21.455297 -0.003108 -0.000018 13.118093 0.134812 1.174144 11.076713 -0.088599 4.407629 8.474789 -0.047946 3.757232 -30.969507 -24.701893 -8.743129 -20.046734 50.674057 -8.990109 -44.968037 -84.482246 -145.955261 1.657406 64.181488 151.121719 34.579632 -26.766455 -49.020432 -5.726192 -15.827988 32.264210 179.608826 72.116028 -6.506741 1.567605 -46.461071 -114.337173 44.457905 58.380501 42.475674 -1.845351 22.267258 -15.889052 
109.348770 -11.721702 516.890564 96.852989 -0.452179 105.971901 123.199829 -4.584000 164.911331 -98.673965 17.144899 5.020929 52.108643 5.290823 12.130104 21.454027 0.003087 0.000001 161.175156 -4.649556 -173.102341 -56.810764 -0.923137 1.077035 106.057457 -3.490225 33.344067 21.455357 -0.003109 -0.000018 13.664093 -0.036414 1.321984 10.259620 -0.462142 4.670990 8.068009 -0.648386 4.051403 -31.386856 -24.327318 -6.960237 -20.157019 50.451595 -7.385951 -60.983093 -84.257439 -129.866196 6.522920 63.020527 155.447769 32.834881 -26.498350 -45.310432 -6.087959 -15.344740 33.810894 178.432526 72.195343 -8.531688 -2.613514 -44.757973 -110.382240 46.716316 60.580597 44.358990 -2.079488 21.462782 -18.454021 
110.337692 -12.213642 522.003845 96.889404 -0.487977 105.060745 122.924751 -2.826008 162.187378 -75.638489 14.907350 8.566095 54.199280 6.001443 14.989321 21.453983 0.003087 0.000001 166.334091 -4.479064 -169.626297 -53.450779 -1.999008 -0.328279 110.152283 -4.340807 38.620396 21.455418 -0.003109 -0.000018 14.175225 -0.191928 1.586504 9.623861 -0.783896 5.008034 7.719382 -1.082609 4.359094 -31.630171 -24.003500 -5.353748 -20.960976 49.775143 -6.694114 -77.043602 -83.745232 -113.631927 10.692626 61.130470 158.824448 31.801008 -25.764006 -41.407639 -6.321322 -15.849217 35.820732 177.271561 72.447418 -10.558029 -6.510149 -43.310028 -106.649345 52.590511 61.345654 48.222168 -1.962721 20.910252 -19.576994 
110.950134 -12.353070 527.325867 96.613968 -0.502170 104.025276 125.026863 -1.306925 160.004074 -45.852535 9.946507 14.328363 52.887627 0.590098 15.649559 21.453947 0.003088 0.000001 172.187592 -4.544677 -166.232086 -48.703892 -2.001388 -4.015810 114.223450 -2.843111 43.446800 21.455467 -0.003109 -0.000018 14.321998 -0.083571 1.680302 9.237389 -1.193038 5.500513 7.404825 -1.648031 4.785157 -31.408112 -24.176245 -3.849404 -22.128901 48.775429 -6.633830 -90.596245 -82.773544 -100.025192 14.272133 58.516876 161.835495 31.483633 -25.050884 -37.997971 -6.278007 -17.087650 37.924145 175.950394 72.452049 -12.882582 -9.912844 -42.647400 -103.337753 59.752991 61.237473 52.353596 -1.517940 20.529095 -19.051849 
111.407654 -12.680451 532.745850 96.244125 -0.280700 102.365860 126.925095 -0.039016 159.162247 -21.161070 3.657292 19.125374 40.369892 -3.781716 12.776847 21.453926 0.003088 0.000001 178.081284 -4.783823 -163.130600 -45.665199 -2.457216 -8.229516 114.868118 -0.074767 47.382004 21.455475 -0.003109 -0.000018 14.440291 -0.029915 1.971126 9.031116 -1.703917 6.045661 7.244313 -2.258323 5.327013 -30.754007 -25.178394 -2.472220 -22.920990 47.800003 -6.703683 -102.500481 -81.670174 -88.095551 17.346384 55.677887 164.041107 30.355356 -24.630505 -34.456539 -5.779869 -18.919353 38.991154 174.695419 72.310776 -15.068037 -12.676903 -42.735012 -100.528511 67.551933 61.290459 57.714275 -0.745120 19.846048 -17.138721 
